<svg fill="#1C2033" width="52" height="52" viewBox="0 0 64 64" xmlns="http://www.w3.org/2000/svg"><path d="M34.9986 29.9002H28.6987V24.1002H34.9986V29.9002ZM34.9986 10.2002H28.6987V16.1002H34.9986V10.2002ZM42.5986 24.3002H36.2986V30.0002H42.5986V24.3002ZM27.4986 17.2002H21.1987V23.0002H27.4986V17.2002ZM34.9986 17.2002H28.6987V23.0002H34.9986V17.2002ZM61.8987 26.9002C60.4987 25.9002 57.2987 25.6002 54.8987 26.1002C54.5987 23.7002 53.1986 21.7002 50.9986 19.9002L49.5986 19.1002L48.7986 20.5002C47.0986 23.2002 46.4987 27.7002 48.3987 30.6002C47.5987 31.0002 45.8986 31.7002 43.7986 31.7002H1.19865C0.398651 36.6002 1.79865 43.1002 5.39865 47.5002C8.89865 51.7002 14.3986 53.8002 21.3986 53.8002C36.5986 53.8002 47.9987 46.8002 53.1987 34.0002C55.1987 34.0002 59.7986 34.0002 62.0986 29.6002C62.1986 29.5002 62.7987 28.3002 62.8987 27.9002L61.8987 26.9002ZM12.3987 24.3002H5.99865V30.0002H12.2987V24.3002H12.3987ZM19.8986 24.3002H13.5987V30.0002H19.8986V24.3002ZM27.4986 24.3002H21.1987V30.0002H27.4986V24.3002ZM19.8986 17.2002H13.5987V23.0002H19.8986V17.2002Z"/></svg>