<svg fill="#000" width="52" height="52" viewBox="0 0 64 64" xmlns="http://www.w3.org/2000/svg"><path d="M42.3992 21.5C48.1992 21.5 52.7992 16.9 52.7992 11.1C52.7992 5.3 47.9992 1 42.3992 1H21.5992C15.7992 1 11.1992 5.6 11.1992 11.4C11.1992 17.2 15.7992 21.8 21.5992 21.8C15.7992 21.8 11.1992 26.4 11.1992 32.2C11.1992 38 15.7992 42.6 21.5992 42.6C15.7992 42.6 11.1992 47.2 11.1992 53C11.1992 58.8 15.8992 63 21.5992 63C27.2992 63 31.9992 58.4 31.9992 52.6V21.8H42.3992V21.5ZM42.3992 21.5C36.5992 21.5 31.9992 26.1 31.9992 31.9C31.9992 37.7 36.5992 42.3 42.3992 42.3C48.1992 42.3 52.7992 37.7 52.7992 31.9C52.4992 26.1 47.9992 21.5 42.3992 21.5Z"/></svg>