<svg fill="#1C2033" width="52" height="52" viewBox="0 0 64 64" xmlns="http://www.w3.org/2000/svg"><g clip-path="url(#clip0_412_99)"><path d="M37.5689 7.13889C34.8766 3.96174 32.5568 0.712429 32.0858 0.0456474C32.076 0.0315614 32.063 0.0200504 32.0478 0.0121008C32.0326 0.0041513 32.0157 -1.4679e-06 31.9986 3.8922e-10C31.9815 1.46867e-06 31.9646 0.0041563 31.9494 0.0121084C31.9342 0.0200606 31.9212 0.031573 31.9114 0.0456607C31.4405 0.712457 29.1213 3.96175 26.429 7.13889C3.35316 36.5365 30.0712 56.3707 30.0712 56.3707L30.2877 56.5212C30.4903 59.5899 30.9935 64 30.9935 64H33.0043C33.0043 64 33.5054 59.6088 33.7088 56.5411L33.9268 56.3707C33.9268 56.3707 60.6445 36.5366 37.5689 7.13889ZM31.999 55.9396C31.999 55.9396 30.8011 54.918 30.4778 54.4061L30.4748 54.351L31.9236 22.3454C31.9245 22.326 31.9328 22.3077 31.9468 22.2943C31.9609 22.2809 31.9795 22.2734 31.9989 22.2734C32.0183 22.2734 32.037 22.2809 32.051 22.2943C32.065 22.3077 32.0733 22.326 32.0742 22.3454L33.523 54.3509L33.5202 54.4059C33.1971 54.9177 31.999 55.9396 31.999 55.9396Z"/></g><defs><clipPath id="clip0_412_99"><rect width="64" height="64" fill="white"/></clipPath></defs></svg>