<svg fill="#1C2033" width="52" height="52" viewBox="0 0 64 64" xmlns="http://www.w3.org/2000/svg"><g clip-path="url(#clip0_412_105)"><path d="M57.3257 12.4423C46.5242 -1.54483 26.4297 -4.12715 12.4423 6.67406C-1.54485 17.4756 -4.12721 37.5706 6.67422 51.5575C17.4759 65.5447 37.5711 68.127 51.5586 57.3258C51.5609 57.3238 51.5635 57.3219 51.5658 57.3199C65.5454 46.5164 68.1255 26.4266 57.3257 12.4423ZM49.1364 20.4262L46.638 17.9681L46.1 17.4301L46.25 17.2801L50.0368 13.7039C50.7166 14.5259 51.0889 15.5607 51.0869 16.6301C51.0843 17.8809 50.5856 19.0797 49.6998 19.9628C49.5233 20.1308 49.3354 20.2854 49.1364 20.4262ZM15.0341 47.1616L15.4773 47.5767L17.7979 49.8972L12.6341 49.5612L15.0341 47.1616ZM46.367 11.9354C47.409 11.942 48.4199 12.2874 49.2468 12.9211L45.0871 17.1079L45.0861 17.1089C45.0613 17.1288 45.0391 17.151 45.0191 17.1759C45.0155 17.1804 45.012 17.185 45.0087 17.1899C45.0018 17.1994 44.9953 17.2092 44.9891 17.219C44.9832 17.2288 44.9776 17.2386 44.9724 17.2488C44.9645 17.2641 44.9574 17.2798 44.9518 17.2958C44.9495 17.3017 44.9476 17.3076 44.9459 17.3135C44.944 17.3194 44.9423 17.3252 44.9407 17.3311C44.8979 17.4899 44.9495 17.6668 45.0861 17.7759L48.2326 20.9224C46.47 21.6904 44.4168 21.2982 43.061 19.935C41.7292 18.593 41.3412 16.582 42.054 14.8351C42.7672 13.0882 44.4671 11.9452 46.367 11.9354ZM43.4601 22.3879C43.448 22.7987 43.263 23.1847 42.9532 23.4547L30.4911 34.2997L30.4489 34.3366L29.9943 33.882L29.7965 33.6843L29.6995 33.5872L29.421 33.3087L29.3141 33.2019L29.1007 32.9884L40.9003 21.295C41.1052 21.0907 41.3549 20.9583 41.6177 20.8982C41.7001 20.8792 41.7837 20.8671 41.8674 20.8626C42.0086 20.8544 42.1505 20.8662 42.289 20.8979C42.4015 20.9237 42.5116 20.9626 42.6169 21.0149C42.6701 21.041 42.7221 21.0708 42.7721 21.1038C42.8247 21.1384 42.8754 21.1763 42.9238 21.2182C42.9522 21.2423 42.98 21.2682 43.0071 21.295C43.0493 21.3339 43.0885 21.375 43.1248 21.4182C43.2284 21.5705 43.3173 21.7316 43.3908 21.899C43.4412 22.0552 43.465 22.2209 43.4601 22.3879ZM29.066 34.353C29.0716 34.3742 29.0791 34.3955 29.0876 34.416L29.1961 34.5223L29.6635 34.9798L29.49 35.0011L26.9033 35.3184L27.2207 35.0011L28.4735 33.7483L29.066 34.353ZM41.6442 19.9598C41.1281 20.0278 40.63 20.2599 40.2332 20.656L28.4745 32.3629L26.1666 30.0554C32.2658 23.9842 35.9951 20.8152 38.3134 19.7758C39.3684 19.1107 40.7052 19.2104 41.6442 19.9598ZM25.4878 30.7362L25.5365 30.7843L27.4394 32.6871L22.4746 33.7493L25.4878 30.7362ZM18.981 46.2804C18.6617 46.4334 18.4944 46.7903 18.581 47.1335L19.1137 49.4534C19.1539 49.5092 19.1539 49.5844 19.1137 49.6403C19.0533 49.6946 18.9614 49.6946 18.901 49.6403L15.7551 46.4674L25.4489 36.6281L30.4692 35.8495L32.3135 37.6939C28.2333 41.0851 23.7562 43.9684 18.981 46.2804ZM33.1934 37.001L31.2464 35.0547L43.5 24.3103C42.6309 27.7676 38.0094 32.4495 33.1934 37.001ZM50.0731 16.0421C49.9688 15.8679 49.7511 15.8002 49.5658 15.8832C49.4769 15.9283 49.4096 16.0078 49.3799 16.1032C49.3501 16.1983 49.3596 16.3016 49.406 16.3902C49.593 16.783 49.541 17.2481 49.273 17.59C49.2056 17.6566 49.1694 17.7485 49.173 17.8429C49.1739 17.9367 49.2096 18.0269 49.273 18.0959C49.3413 18.123 49.4174 18.123 49.4861 18.0959C49.6126 18.1279 49.7462 18.0864 49.8329 17.989C50.281 17.4403 50.3744 16.683 50.0731 16.0421Z"/></g><defs><clipPath id="clip0_412_105"><rect width="64" height="64" fill="white"/></clipPath></defs></svg>